<?xml version="1.0" encoding="utf-8"?>
<!-- Generator: Adobe Illustrator 18.1.0, SVG Export Plug-In . SVG Version: 6.00 Build 0)  -->
<!DOCTYPE svg PUBLIC "-//W3C//DTD SVG 1.1 Tiny//EN" "http://www.w3.org/Graphics/SVG/1.1/DTD/svg11-tiny.dtd">
<svg version="1.1" baseProfile="tiny" xmlns="http://www.w3.org/2000/svg" xmlns:xlink="http://www.w3.org/1999/xlink" x="0px"
	 y="0px" viewBox="0 0 50 50" xml:space="preserve">
<g id="Layer_1">
	<g>
		<path fill="#3FA9F5" d="M5.2,39.3c-0.8-1.1,0.4-1.8,1-3.2l6.5-14.6c1.1-2.5,2.7-3.6,5.6-3.6l23.1-0.1l2.2-1.4l0,0
			c0-3-2.5-5.5-5.6-5.5H23.2c0-3-2.5-5.5-5.6-5.5H8.4c-3.1,0-5.6,2.4-5.6,5.5v25.5c0,2.5,1.7,4.6,4,5.2C5.9,41.3,5.7,40,5.2,39.3z"
			/>
	</g>
	<rect x="1.8" y="-0.1" fill="none" width="48.2" height="48.2"/>
	<path fill="#333333" d="M43.6,17.8"/>
	<polyline fill="#3FA9F5" points="43.6,16.4 41.6,17.7 43.6,17.8 	"/>
</g>
<g id="Fold">
	<path fill="#FFFFFF" d="M42.7,37.5c-0.8,2.1-3.2,3.8-5.3,3.8H6.9c-2.1,0-3.2-1.7-2.3-3.8l5.9-17.3c0.8-2.1,3.2-3.8,5.3-3.8h30.6
		c2.1,0,3.2,1.7,2.3,3.8L42.7,37.5z"/>
	<path fill="none" stroke="#666666" stroke-width="0.5" stroke-miterlimit="10" d="M42.1,37.5c-0.8,2.1-3.2,3.7-5.3,3.7H6.5
		c-2.1,0-3.1-1.7-2.3-3.7l5.9-17c0.8-2.1,3.2-3.8,5.3-3.8h30.3c2.1,0,3.1,1.7,2.3,3.8L42.1,37.5z"/>
</g>
</svg>
